<svg width="140" height="28" viewBox="0 0 140 28" fill="none" xmlns="http://www.w3.org/2000/svg">
<g clip-path="url(#clip0_68_84)">
<path fill-rule="evenodd" clip-rule="evenodd" d="M15.3008 15.7164H12.7275C12.1711 15.7164 11.7306 15.5264 11.406 15.1464C11.0815 14.7664 10.9192 14.254 10.9192 13.6091C10.9192 12.9412 11.0757 12.4173 11.3886 12.0373C11.7016 11.6573 12.1479 11.4673 12.7275 11.4673H18.3609C19.9838 11.4673 20.7952 12.2618 20.7952 13.8509V20.2419C20.7952 21.3243 20.4474 22.1764 19.7519 22.7982C19.2187 23.3279 18.2972 23.8116 16.9873 24.2491C15.6775 24.6867 14.0605 24.9055 12.1363 24.9055C8.26472 24.9055 5.27414 23.9037 3.16448 21.9001C1.05482 19.8964 0 17.1213 0 13.5746C0 9.75152 1.14755 6.70003 3.44268 4.42001C5.7378 2.13999 8.99498 1 13.2143 1C14.698 1 16.0252 1.20151 17.196 1.60455C18.3667 2.00758 19.1839 2.4394 19.6476 2.9C20.1576 3.40668 20.4126 4.05152 20.4126 4.83455C20.4126 5.45638 20.233 5.95728 19.8736 6.33729C19.5143 6.71729 19.0448 6.90729 18.4653 6.90729C18.2334 6.90729 17.5669 6.6885 16.4657 6.25092C15.3645 5.81334 14.13 5.59456 12.7622 5.59456C10.6989 5.59456 9.06456 6.22789 7.85904 7.49456C6.65352 8.76124 6.05076 10.5921 6.05076 12.9873C6.05076 15.4516 6.65352 17.3285 7.85904 18.6182C9.06456 19.9079 10.7453 20.5528 12.9013 20.5528C13.6896 20.5528 14.2923 20.4837 14.7096 20.3455C14.8719 20.3225 15.0689 20.2649 15.3008 20.1728V15.7164ZM26.0518 20.7599L22.6787 11.329C22.4469 10.615 22.331 10.0738 22.331 9.70534C22.331 8.9223 22.6613 8.29473 23.322 7.82261C23.9828 7.35048 24.7188 7.11442 25.5302 7.11442C26.2953 7.11442 26.898 7.33321 27.3385 7.77079C27.6167 8.04715 27.8949 8.65745 28.1731 9.6017L30.5725 17.1672C30.8044 17.9502 30.955 18.4914 31.0246 18.7908L31.1637 19.5163H31.2332C31.326 19.1938 31.3839 18.952 31.4071 18.7908L31.8244 17.1672L34.1891 9.49806C34.4441 8.64594 34.6991 8.07018 34.9541 7.77079C35.3946 7.33321 35.9973 7.11442 36.7624 7.11442C37.5274 7.11442 38.2229 7.33321 38.8489 7.77079C39.4748 8.20837 39.7878 8.78412 39.7878 9.49806C39.7878 9.84352 39.6834 10.3272 39.4748 10.949L35.9973 20.7254C35.5105 22.1302 35.0121 23.086 34.502 23.5926C33.6675 24.3066 32.5083 24.6636 31.0246 24.6636C29.5409 24.6636 28.3933 24.3181 27.5819 23.6272C27.0719 23.0745 26.5619 22.1187 26.0518 20.7599ZM41.741 17.8238V9.67107C41.741 7.98985 42.7031 7.14925 44.6273 7.14925C46.5515 7.14925 47.5136 7.98985 47.5136 9.67107V17.202C47.5136 19.3208 48.3134 20.3802 49.913 20.3802C50.7708 20.3802 51.5126 20.0232 52.1386 19.3093C52.3936 19.0559 52.6486 18.699 52.9036 18.2384V9.67107C52.9036 7.98985 53.8657 7.14925 55.7899 7.14925C57.7141 7.14925 58.6762 7.98985 58.6762 9.67107V22.3838C58.6762 23.9499 57.8764 24.7329 56.2767 24.7329C54.9089 24.7329 54.0744 24.1226 53.773 22.902L53.6339 22.3147H53.5643C53.263 22.7984 52.8688 23.2244 52.382 23.5929C51.1997 24.4681 49.8435 24.9057 48.3134 24.9057C46.2965 24.9057 44.6968 24.2896 43.5145 23.0575C42.3322 21.8253 41.741 20.0808 41.741 17.8238ZM61.5336 12.6418C61.5336 10.9376 62.2001 9.56151 63.5331 8.51362C64.8661 7.46574 66.7845 6.9418 69.2883 6.9418C71.6298 6.9418 73.2294 7.36786 74.0872 8.21999C74.5276 8.58847 74.7479 9.12968 74.7479 9.84363C74.7479 10.3503 74.5856 10.7648 74.261 11.0873C73.9365 11.4097 73.5308 11.5709 73.0439 11.5709C72.7657 11.5709 72.2209 11.4558 71.4095 11.2254C70.5981 10.9951 69.8331 10.88 69.1144 10.88C67.793 10.88 67.1323 11.237 67.1323 11.9509C67.1323 12.3655 67.4221 12.6994 68.0016 12.9527C68.5812 13.2061 69.2825 13.4421 70.1055 13.6609C70.9285 13.8797 71.7515 14.1503 72.5745 14.4727C73.3975 14.7952 74.0988 15.3364 74.6783 16.0964C75.2579 16.8564 75.5477 17.8121 75.5477 18.9636C75.5477 20.737 74.8522 22.1649 73.4612 23.2473C72.0702 24.3297 70.0417 24.8709 67.3757 24.8709C64.7328 24.8709 63.0289 24.4334 62.2638 23.5582C61.8234 23.1206 61.6031 22.5679 61.6031 21.9C61.6031 21.4164 61.7654 21.0134 62.09 20.6909C62.4145 20.3685 62.8202 20.2073 63.3071 20.2073C63.5389 20.2073 64.1011 20.3282 64.9936 20.57C65.8862 20.8118 66.7497 20.9327 67.5843 20.9327C69.1608 20.9327 69.949 20.5067 69.949 19.6546C69.949 19.24 69.6592 18.9003 69.0796 18.6355C68.5001 18.3706 67.7988 18.1288 66.9758 17.91C66.1528 17.6912 65.3298 17.4149 64.5068 17.0809C63.6838 16.747 62.9825 16.2058 62.4029 15.4573C61.8234 14.7088 61.5336 13.7703 61.5336 12.6418ZM78.5091 11.4673H77.5702C76.3647 11.4673 75.7619 10.7649 75.7619 9.36001C75.7619 7.97818 76.3647 7.28728 77.5702 7.28728H78.7178L79.3785 4.69636C79.7494 3.22241 80.6188 2.48545 81.9866 2.48545C83.5167 2.48545 84.2817 3.26847 84.2817 4.83455V7.28728H86.6116C87.8171 7.28728 88.4199 7.97818 88.4199 9.36001C88.4199 10.7649 87.8171 11.4673 86.6116 11.4673H84.2817V18.3419C84.2817 19.6776 84.7454 20.3455 85.6727 20.3455C85.9277 20.3455 86.1943 20.3167 86.4725 20.2591C86.7507 20.2016 86.9593 20.1728 87.0984 20.1728C87.5157 20.1728 87.8635 20.3225 88.1417 20.6219C88.4199 20.9213 88.559 21.3128 88.559 21.7964C88.559 22.4413 88.3155 23.04 87.8287 23.5928C87.0637 24.3528 85.7886 24.7328 84.0035 24.7328C82.1257 24.7328 80.7405 24.2894 79.848 23.4028C78.9554 22.5161 78.5091 21.1285 78.5091 19.24V11.4673Z" fill="url(#paint0_linear_68_84)"/>
<path d="M111.921 9.96551C111.921 5.91469 108.637 2.63086 104.587 2.63086C100.536 2.63086 97.252 5.91469 97.252 9.96551V18.6584C97.252 22.7092 100.536 25.9931 104.587 25.9931C108.637 25.9931 111.921 22.7092 111.921 18.6584V9.96551Z" fill="#247EC3" stroke="white" stroke-width="4"/>
<path d="M118.984 9.96404C118.984 5.91323 115.7 2.62939 111.65 2.62939C107.599 2.62939 104.315 5.91323 104.315 9.96404V18.6569C104.315 22.7078 107.599 25.9916 111.65 25.9916C115.7 25.9916 118.984 22.7078 118.984 18.6569V9.96404Z" fill="#9B248A" stroke="white" stroke-width="4"/>
<path d="M126.047 9.96404C126.047 5.91323 122.763 2.62939 118.713 2.62939C114.662 2.62939 111.378 5.91323 111.378 9.96404V18.6569C111.378 22.7078 114.662 25.9916 118.713 25.9916C122.763 25.9916 126.047 22.7078 126.047 18.6569V9.96404Z" fill="#D3E71F" stroke="white" stroke-width="4"/>
<path d="M130 2.62939H126.984C122.566 2.62939 118.984 6.21112 118.984 10.6294V17.9916C118.984 22.4099 122.566 25.9916 126.984 25.9916H130C134.418 25.9916 138 22.4099 138 17.9916V10.6294C138 6.21112 134.418 2.62939 130 2.62939Z" fill="#1EAA86" stroke="white" stroke-width="4"/>
</g>
<defs>
<linearGradient id="paint0_linear_68_84" x1="0" y1="36.8585" x2="88.559" y2="36.8585" gradientUnits="userSpaceOnUse">
<stop stop-color="#3A90D2"/>
<stop offset="1" stop-color="#710B57"/>
</linearGradient>
<clipPath id="clip0_68_84">
<rect width="140" height="28" fill="white"/>
</clipPath>
</defs>
</svg>
