<svg width="39" height="32" viewBox="0 0 39 32" fill="none" xmlns="http://www.w3.org/2000/svg">
<path d="M9.76637 18.9686L1.22462 16.1855C1.22462 16.1855 0.203791 15.7713 0.532499 14.8322C0.600166 14.6385 0.736665 14.4737 1.145 14.1905C3.03762 12.8713 36.1759 0.960516 36.1759 0.960516C36.1759 0.960516 37.1116 0.645224 37.6634 0.854932C37.7999 0.897191 37.9228 0.974955 38.0194 1.08027C38.116 1.18558 38.1829 1.31466 38.2132 1.45431C38.2728 1.70096 38.2978 1.95472 38.2873 2.20827C38.2847 2.4276 38.2581 2.63089 38.238 2.94968C38.0362 6.20614 31.9963 30.5101 31.9963 30.5101C31.9963 30.5101 31.635 31.9323 30.3402 31.981C30.0221 31.9913 29.7051 31.9374 29.4082 31.8225C29.1113 31.7077 28.8406 31.5342 28.6121 31.3125C26.0714 29.1271 17.2899 23.2255 15.3495 21.9276C15.3057 21.8977 15.2688 21.8589 15.2414 21.8136C15.2139 21.7683 15.1964 21.7177 15.1902 21.6651C15.1631 21.5283 15.3118 21.3588 15.3118 21.3588C15.3118 21.3588 30.6027 7.76714 31.0096 6.34031C31.0411 6.22977 30.9221 6.17523 30.7623 6.22364C29.7467 6.59727 12.1411 17.7153 10.198 18.9423C10.0582 18.9847 9.91034 18.9937 9.76637 18.9686Z" fill="white"/>
</svg>
