<svg width="56" height="56" viewBox="0 0 56 56" fill="none" xmlns="http://www.w3.org/2000/svg">
<path d="M39.6663 51.3333H16.333C15.3763 51.3333 14.583 50.54 14.583 49.5833C14.583 48.6267 15.3763 47.8333 16.333 47.8333H39.6663C40.623 47.8333 41.4163 48.6267 41.4163 49.5833C41.4163 50.54 40.623 51.3333 39.6663 51.3333Z" fill="#222222"/>
<path d="M47.4829 12.88L38.1495 19.5533C36.9129 20.44 35.1395 19.9033 34.6029 18.48L30.1929 6.72001C29.4462 4.69001 26.5762 4.69001 25.8295 6.72001L21.3962 18.4567C20.8595 19.9033 19.1095 20.44 17.8729 19.53L8.53954 12.8567C6.67287 11.55 4.19954 13.3933 4.96954 15.5633L14.6762 42.7467C15.0029 43.68 15.8895 44.2867 16.8695 44.2867H39.1062C40.0862 44.2867 40.9729 43.6567 41.2995 42.7467L51.0062 15.5633C51.7995 13.3933 49.3262 11.55 47.4829 12.88ZM33.8329 34.4167H22.1662C21.2095 34.4167 20.4162 33.6233 20.4162 32.6667C20.4162 31.71 21.2095 30.9167 22.1662 30.9167H33.8329C34.7895 30.9167 35.5829 31.71 35.5829 32.6667C35.5829 33.6233 34.7895 34.4167 33.8329 34.4167Z" fill="#222222"/>
</svg>
