<svg width="24" height="24" viewBox="0 0 24 24" fill="none" xmlns="http://www.w3.org/2000/svg">
<path d="M21.49 12C21.81 10.98 22 9.88 22 8.69C22 5.6 19.51 3.09998 16.44 3.09998C14.62 3.09998 13.01 3.98003 12 5.34003C10.99 3.98003 9.37 3.09998 7.56 3.09998C4.49 3.09998 2 5.6 2 8.69C2 15.69 8.48 19.82 11.38 20.82C11.55 20.88 11.77 20.91 12 20.91" stroke="#0082E7" stroke-width="1.5" stroke-linecap="round" stroke-linejoin="round"/>
<path d="M16.5 20C18.433 20 20 18.433 20 16.5C20 14.567 18.433 13 16.5 13C14.567 13 13 14.567 13 16.5C13 18.433 14.567 20 16.5 20Z" stroke="#0082E7" stroke-width="1.5" stroke-linecap="round" stroke-linejoin="round"/>
<path d="M21.54 21.6L19.54 19.6" stroke="#0082E7" stroke-width="1.5" stroke-linecap="round" stroke-linejoin="round"/>
</svg>
