<svg width="210" height="210" viewBox="0 0 210 210" fill="none" xmlns="http://www.w3.org/2000/svg">
<g filter="url(#filter0_d_105_908)">
<path d="M178.1 77.0552L163.609 70.1599L171.722 56.3141C173.94 52.738 172.327 49.7656 168.119 49.6751L152.546 48.9514L154.758 33.5183C155.46 29.368 152.844 27.2262 148.914 28.7337L133.792 34.1041L129.739 18.5774C128.778 14.4795 125.535 13.5176 122.497 16.4297L110.974 26.9308L101.625 14.4537C99.1875 11.0224 95.8212 11.3582 94.1081 15.2036L87.2128 29.6946L73.367 21.5816C69.7909 19.3639 66.8185 20.9767 66.728 25.1845L66.0043 40.7578L50.5712 38.5454C46.4209 37.8439 44.2794 40.4604 45.7866 44.3903L51.157 59.5121L35.6305 63.5652C31.5326 64.5258 30.5705 67.7686 33.4829 70.8074L43.984 82.3306L31.5083 91.679C28.0772 94.1183 28.4128 97.4827 32.2582 99.1961L46.7492 106.091L38.6362 119.937C36.4185 123.513 38.0313 126.486 42.2391 126.576L57.8124 127.3L55.6 142.733C54.8985 146.883 57.515 149.025 61.4449 147.517L76.5666 142.147L80.6198 157.674C81.5804 161.771 84.8232 162.734 87.862 159.822L99.3852 149.32L108.733 161.797C111.171 165.229 114.537 164.893 116.251 161.047L123.146 146.556L136.992 154.67C140.568 156.888 143.54 155.274 143.631 151.066L144.354 135.493L159.787 137.706C163.938 138.407 166.079 135.791 164.572 131.861L159.201 116.739L174.728 112.686C178.826 111.725 179.788 108.482 176.876 105.444L166.375 93.9206L178.852 84.5724C182.281 82.1329 181.946 78.7666 178.1 77.0552Z" fill="url(#paint0_linear_105_908)"/>
</g>
<defs>
<filter id="filter0_d_105_908" x="0.710154" y="0.239298" width="208.938" height="208.94" filterUnits="userSpaceOnUse" color-interpolation-filters="sRGB">
<feFlood flood-opacity="0" result="BackgroundImageFix"/>
<feColorMatrix in="SourceAlpha" type="matrix" values="0 0 0 0 0 0 0 0 0 0 0 0 0 0 0 0 0 0 127 0" result="hardAlpha"/>
<feOffset dy="16.5836"/>
<feGaussianBlur stdDeviation="14.2145"/>
<feComposite in2="hardAlpha" operator="out"/>
<feColorMatrix type="matrix" values="0 0 0 0 0 0 0 0 0 0 0 0 0 0 0 0 0 0 0.1 0"/>
<feBlend mode="normal" in2="BackgroundImageFix" result="effect1_dropShadow_105_908"/>
<feBlend mode="normal" in="SourceGraphic" in2="effect1_dropShadow_105_908" result="shape"/>
</filter>
<linearGradient id="paint0_linear_105_908" x1="126.481" y1="12.3084" x2="50.4091" y2="113.911" gradientUnits="userSpaceOnUse">
<stop stop-color="#FF3528"/>
<stop offset="1" stop-color="#F57600"/>
</linearGradient>
</defs>
</svg>
